<?xml version="1.0" encoding="UTF-8"?>
<svg width="768.4" height="491.6" version="1.1" viewBox="0 0 203.31 130.07" xmlns="http://www.w3.org/2000/svg" xmlns:cc="http://creativecommons.org/ns#" xmlns:dc="http://purl.org/dc/elements/1.1/" xmlns:rdf="http://www.w3.org/1999/02/22-rdf-syntax-ns#">
 <metadata>
  <rdf:RDF>
   <cc:Work rdf:about="">
    <dc:format>image/svg+xml</dc:format>
    <dc:type rdf:resource="http://purl.org/dc/dcmitype/StillImage"/>
    <dc:title/>
   </cc:Work>
  </rdf:RDF>
 </metadata>
 <g transform="translate(33.92 -2.6989)">
  <g transform="translate(1.4175 -32.062)">
   <circle cx="63.805" cy="99.796" r="60.801" fill="#fed766" stroke="#2e2e39" stroke-linejoin="round" stroke-width="8.4667"/>
   <rect transform="matrix(.99152 -.12994 .13065 .99143 0 0)" x="-41.704" y="69.025" width="96.794" height="59.681" ry="1.3836" fill="#f4f4f8" stroke="#fe4a49" stroke-linejoin="round" stroke-width="6.35"/>
   <g transform="matrix(.96173 -.12639 .12639 .96173 440.69 1466.1)" fill="#2e2e39" stroke-width=".27277" style="font-variant-caps:normal;font-variant-east-asian:normal;font-variant-ligatures:normal;font-variant-numeric:normal" aria-label="bit">
    <path d="m-267.87-1476q0 4.3895-2.9464 17.077 3.4876-2.1046 6.4339-2.1046 2.9464 0 5.1712 2.4653 2.2248 2.4654 2.2248 9.0196 0 6.4941-3.6078 11.184-3.5477 4.6902-8.779 4.6902-3.1268 0-6.1934-1.6837-6.013 1.4432-10.162 1.4432-0.30065-0.1804-0.30065-2.0445 0-4.3895 3.4876-18.821 3.5477-14.431 3.5477-19.602 0-1.3229-0.12026-2.5255 5.8326-1.6235 10.884-1.6235 0.36078 0.6013 0.36078 2.5255zm-1.864 20.985q-0.84182 0-2.1647 0.6615-2.5856 11.124-3.0065 14.972 1.0823 0.5412 1.9843 0.5412 2.0444 0 3.3072-4.3895 1.3229-4.3895 1.3229-8.0575 0-3.7281-1.4431-3.7281z" style="font-variant-caps:normal;font-variant-east-asian:normal;font-variant-ligatures:normal;font-variant-numeric:normal"/>
    <path d="m-240.12-1457q0 2.6457-1.5032 8.2378-1.5033 5.532-1.5033 7.2157 0 1.6836 0.66143 1.6836t2.4052-0.6013l0.54118-0.2405 1.0823 3.0065q-2.0444 1.5634-5.1111 2.766-3.0065 1.2026-5.4719 1.2026t-3.9085-1.383q-1.383-1.383-1.383-3.9686 0-2.6457 1.4431-7.9973 1.5033-5.4118 1.5033-6.8549 0-2.2248-1.5634-4.2091l-0.48104-0.6614 0.18039-1.0223q3.1268-0.962 12.146-0.962 0.96208 1.0823 0.96208 3.7882zm-4.5098-8.4784q-2.7059 0-4.2692-1.4431-1.5033-1.4432-1.5033-3.668 0-2.2849 1.864-3.7882 1.9242-1.5634 4.63-1.5634 2.7059 0 4.2091 1.2628 1.5032 1.2627 1.5032 3.5476 0 2.285-1.864 3.9686-1.8039 1.6837-4.5699 1.6837z" style="font-variant-caps:normal;font-variant-east-asian:normal;font-variant-ligatures:normal;font-variant-numeric:normal"/>
    <path d="m-215.84-1455.7-5.1712-0.4209q-2.4052 10.763-2.6457 12.507-0.18039 1.7438-0.18039 2.8862 0 1.0824 0.72157 1.0824 0.84182 0 3.1869-1.0824l1.4431 2.8863q-1.9242 1.7438-4.8706 2.9464-2.9464 1.2026-5.7124 1.2026-2.7059 0-4.3294-1.383-1.6235-1.4431-1.6235-4.0287t1.5033-8.298q1.5032-5.7124 1.9843-8.4784-1.4431 0.1203-4.2693 0.4209-0.24052-1.2627-0.24052-2.3451 0-1.1424 0.30065-2.5254h4.8104q0.0601-0.7817 0.0601-5.2314l-0.12026-2.4653q5.8326-1.9242 11.124-1.9242 0.42092 0.9621 0.42092 3.3673 0 2.3451-0.7817 6.2536h5.4117q0 2.4653-1.0222 4.63z" style="font-variant-caps:normal;font-variant-east-asian:normal;font-variant-ligatures:normal;font-variant-numeric:normal"/>
   </g>
   <rect transform="rotate(8.6501)" x="70.207" y="64.85" width="106.54" height="56.649" ry="1.3133" fill="#f4f4f8" stroke="#009fb7" stroke-linejoin="round" stroke-width="6.35"/>
   <g transform="rotate(8.6358 -9761.3 3759.3)" fill="#2e2e39" stroke-width=".23761" style="font-variant-caps:normal;font-variant-east-asian:normal;font-variant-ligatures:normal;font-variant-numeric:normal" aria-label="wits">
    <path d="m-595.23-1317.1 0.552-12.144q0-1.1592-0.3312-1.9872-0.3312-0.8832-1.6008-2.3736l0.1656-0.8832q4.1952-1.0488 6.9552-1.0488 2.76 0 3.9192 1.3248 1.2144 1.3248 1.2144 3.6984 0 2.3184-0.82799 6.8448-0.828 4.5264-0.828 6.1272 0 1.5456 0.8832 1.5456 1.2144 0 3.036-1.4352 0.0552-0.9384 0.4968-5.4096t0.4416-6.624q0-2.208-0.3312-3.864 1.2696-0.6624 4.416-1.2144 3.1464-0.552 5.2992-0.552 0.4968 0.9936 0.4968 3.1464 0 2.0976-0.9384 7.3968-0.9384 5.244-0.9384 6.9 0 1.6008 0.8832 1.6008 1.3248 0 3.4224-2.5944 2.0976-2.6496 2.76-4.8024l-4.0296-3.9744q0.2208-2.2632 0.9936-4.2504 0.7728-2.0424 1.4352-2.9256l0.60719-0.8832q6.6792 0 6.6792 5.4096 0 2.5944-1.4352 6.0168-1.38 3.4224-3.5328 6.4584-2.1528 2.9808-5.1336 5.0784t-5.796 2.0976q-3.9192 0-5.3544-3.3672-4.0296 3.312-8.28 3.312-2.5392 0-3.9192-1.4904t-1.38-5.1336z" style="font-variant-caps:normal;font-variant-east-asian:normal;font-variant-ligatures:normal;font-variant-numeric:normal"/>
    <path d="m-546.64-1331.8q0 2.4288-1.38 7.5624-1.38 5.0784-1.38 6.624t0.6072 1.5456q0.60719 0 2.208-0.552l0.4968-0.2208 0.9936 2.76q-1.8768 1.4352-4.692 2.5392-2.76 1.104-5.0232 1.104-2.2632 0-3.588-1.2696-1.2696-1.2696-1.2696-3.6432 0-2.4288 1.3248-7.3416 1.38-4.968 1.38-6.2928 0-2.0424-1.4352-3.864l-0.4416-0.6072 0.1656-0.9384q2.8704-0.8832 11.15-0.8832 0.8832 0.9936 0.8832 3.4776zm-4.14-7.7832q-2.484 0-3.9192-1.3248-1.38-1.3248-1.38-3.3672 0-2.0976 1.7112-3.4776 1.7664-1.4352 4.2504-1.4352 2.484 0 3.864 1.1592t1.38 3.2568-1.7112 3.6432q-1.656 1.5456-4.1952 1.5456z" style="font-variant-caps:normal;font-variant-east-asian:normal;font-variant-ligatures:normal;font-variant-numeric:normal"/>
    <path d="m-524.36-1330.6-4.7472-0.3864q-2.208 9.8808-2.4288 11.482-0.1656 1.6008-0.1656 2.6496 0 0.9936 0.6624 0.9936 0.7728 0 2.9256-0.9936l1.3248 2.6496q-1.7664 1.6008-4.4712 2.7048t-5.244 1.104q-2.484 0-3.9744-1.2696-1.4904-1.3248-1.4904-3.6984t1.38-7.6176q1.38-5.244 1.8216-7.7832-1.3248 0.1104-3.9192 0.3864-0.2208-1.1592-0.2208-2.1528 0-1.0488 0.276-2.3184h4.416q0.0552-0.7176 0.0552-4.8024l-0.1104-2.2632q5.3544-1.7664 10.212-1.7664 0.3864 0.8832 0.3864 3.0912 0 2.1528-0.7176 5.7408h4.968q0 2.2632-0.9384 4.2504z" style="font-variant-caps:normal;font-variant-east-asian:normal;font-variant-ligatures:normal;font-variant-numeric:normal"/>
    <path d="m-505.93-1318.5q0 3.4224-3.2016 5.796-3.1464 2.3184-7.3968 2.3184-4.2504 0-7.0104-1.4352-2.7048-1.4352-2.7048-2.7048 0-1.3248 1.656-3.312 1.7112-2.0424 3.4776-2.3736 2.5392 1.38 4.5816 6.1272 1.6008 0 1.6008-1.0488 0-0.7728-0.4416-1.4352t-0.6624-1.0488-0.7728-1.0488q-0.55199-0.7176-0.82799-1.0488-1.38-1.656-2.484-3.036-2.6496-3.312-2.6496-5.796 0-2.5392 1.6008-4.14 2.76-2.8152 8.1144-2.8152 3.3672 0 5.3544 1.3248 1.9872 1.2696 1.9872 3.864 0 2.5392-3.036 5.8512 2.8152 3.2568 2.8152 5.9616zm-3.6984-10.102q0.6624-1.0488 0.6624-1.8768t-0.7176-1.2696-1.7112-0.4416q-0.9936 0-1.5456 0.4968-0.4968 0.4416-0.4968 1.2144t2.3736 3.4224q0.7728-0.552 1.4352-1.5456z" style="font-variant-caps:normal;font-variant-east-asian:normal;font-variant-ligatures:normal;font-variant-numeric:normal"/>
   </g>
  </g>
 </g>
</svg>
